<svg width="517" height="519" viewBox="0 0 517 519" fill="none" xmlns="http://www.w3.org/2000/svg">
<g opacity="0.1">
<path fill-rule="evenodd" clip-rule="evenodd" d="M108.92 25.9964C106 27.351 98.0799 27.351 95.1597 25.9964C90.4829 23.8312 87.6738 19.7667 87.6645 15.1527C87.6557 9.63989 90.6601 5.57533 96.2128 3.59163C99.3499 2.47574 106.036 2.67524 108.92 3.97721C118.96 8.50229 118.96 21.3514 108.92 25.9964ZM120.287 8.064C118.822 5.07088 115.009 1.33348 112.106 0.0449569C110.951 -0.472934 108.81 -1.15053 107.35 -1.46478C102.275 -2.5631 96.1601 -1.93874 91.9255 0.111632C88.8327 1.61258 85.2354 5.11481 83.8063 8.02833C82.7 10.2823 82.5719 11.0127 82.5807 14.9754C82.5895 18.8854 82.731 19.6959 83.8022 21.8873C85.2225 24.8097 89.045 28.6085 91.7793 29.8175C102.85 34.7194 115.531 31.2125 120.216 21.9582C121.389 19.6426 121.508 18.9914 121.508 14.9754C121.508 11.0395 121.371 10.2736 120.287 8.064Z" fill="white"/>
<path fill-rule="evenodd" clip-rule="evenodd" d="M18.4279 8.19002C24.668 17.1084 25.0187 17.5203 25.6142 16.6225C25.9587 16.1036 28.881 11.9347 32.1085 7.35788L37.9773 -0.964553H42.308V30.9157L37.2351 31.1809L36.9985 8.37195L34.1357 12.5595C32.5609 14.8621 29.8458 18.7882 28.1021 21.2825L24.9314 25.8179L20.1245 18.8585C17.4817 15.0306 14.8207 11.1377 14.2123 10.2073L13.106 8.51667L12.6634 30.9157L7.575 31.1814V-1.18577H11.868L18.4279 8.19002Z" fill="white"/>
<path fill-rule="evenodd" clip-rule="evenodd" d="M176.404 12.0976H166.86V3.68467H176.497C184.82 3.68467 186.28 3.78649 187.226 4.43308C187.828 4.84501 188.465 5.39391 188.643 5.65079C189.16 6.3992 189.005 9.59596 188.417 10.3666C187.214 11.9291 186.059 12.0976 176.404 12.0976ZM195.058 30.5835C194.939 30.278 193.01 27.1474 190.766 23.6229C188.523 20.1032 186.855 17.154 187.059 17.079C191.585 15.4096 193.943 12.5446 194.209 8.40047C194.505 3.73325 192.461 0.815595 187.957 -0.521514C186.218 -1.03941 183.112 -1.18568 173.86 -1.18568H161.993V31.137H166.86V16.9679L180.798 16.986L189.948 31.137H192.611C194.558 31.137 195.213 30.9866 195.058 30.5835Z" fill="white"/>
<path fill-rule="evenodd" clip-rule="evenodd" d="M265.307 3.46361L240.308 3.69826V11.6548H256.679V16.0827H240.308V26.2663H266.856V31.1372H235.441V-1.18604H265.575L265.307 3.46361Z" fill="white"/>
<path fill-rule="evenodd" clip-rule="evenodd" d="M319.507 9.77293C324.933 15.8 329.542 20.798 329.749 20.8792C329.958 20.9608 330.128 16.029 330.128 9.92023V-1.186H334.994V31.1372H333.677C332.519 31.1372 331.141 29.796 322.284 20.0532L312.208 8.97025L311.971 31.1806L306.898 30.9155L306.666 -1.186H308.154C309.537 -1.186 310.337 -0.414845 319.507 9.77293Z" fill="white"/>
<path fill-rule="evenodd" clip-rule="evenodd" d="M403.027 16.0869C402.721 20.3996 400.996 23.0475 397.164 25.0844C395.624 25.9031 394.492 26.0494 388.643 26.1868L381.895 26.346V3.46322L388.643 3.70253C396.372 3.97698 397.868 4.4773 400.66 7.74073C402.642 10.0609 403.292 12.3542 403.027 16.0869ZM407.075 8.11236C404.973 3.65808 400.744 0.381722 395.699 -0.689722C394.412 -0.960039 389.581 -1.1859 384.966 -1.1859H376.572L376.806 30.9156L384.328 31.0396C388.465 31.1104 393.098 30.9729 394.625 30.7342C400.474 29.8307 404.797 26.8288 406.943 22.175C408.084 19.7044 408.221 18.925 408.221 14.9757C408.221 11.1324 408.071 10.2289 407.075 8.11236Z" fill="white"/>
<path fill-rule="evenodd" clip-rule="evenodd" d="M453.352 30.9154L448.264 31.181V-1.18559H453.586L453.352 30.9154Z" fill="white"/>
<path fill-rule="evenodd" clip-rule="evenodd" d="M352.886 68.0016C355.806 66.647 363.727 66.647 366.647 68.0016C371.323 70.1667 374.133 74.2313 374.142 78.8453C374.151 84.3581 371.146 88.4227 365.594 90.4064C362.456 91.5223 355.771 91.3227 352.886 90.0208C342.847 85.4957 342.847 72.6466 352.886 68.0016ZM341.519 85.934C342.984 88.9271 346.798 92.6645 349.7 93.953C350.855 94.4709 352.997 95.1485 354.457 95.4628C359.532 96.5606 365.646 95.9367 369.881 93.8864C372.974 92.3854 376.571 88.8832 378 85.9697C379.106 83.7156 379.234 82.9853 379.226 79.0226C379.217 75.1126 379.075 74.3026 378.004 72.1106C376.584 69.1883 372.761 65.3894 370.027 64.1805C358.957 59.2792 346.276 62.7855 341.59 72.0398C340.418 74.3554 340.298 75.0066 340.298 79.0226C340.298 82.959 340.435 83.725 341.519 85.934Z" fill="white"/>
<path fill-rule="evenodd" clip-rule="evenodd" d="M443.379 85.808C437.138 76.8897 436.788 76.4777 436.192 77.3755C435.848 77.8944 432.925 82.0634 429.698 86.6407L423.829 94.9626H419.498V63.0823L424.571 62.8172L424.808 85.6261L427.671 81.4385C429.246 79.1359 431.961 75.2099 433.704 72.7155L436.875 68.1801L441.682 75.1396C444.325 78.9674 446.986 82.8604 447.594 83.7907L448.7 85.4814L449.143 63.0823L454.231 62.8167V95.1838H449.938L443.379 85.808Z" fill="white"/>
<path fill-rule="evenodd" clip-rule="evenodd" d="M285.402 81.9005H294.946V90.3134H285.309C276.987 90.3134 275.527 90.2115 274.58 89.565C273.978 89.153 273.341 88.6041 273.164 88.3472C272.646 87.5988 272.801 84.4021 273.389 83.632C274.593 82.069 275.748 81.9005 285.402 81.9005ZM266.748 63.4146C266.868 63.72 268.797 66.8506 271.04 70.3751C273.284 73.8949 274.951 76.8441 274.748 76.919C270.221 78.5885 267.863 81.4534 267.598 85.5976C267.301 90.2648 269.345 93.1824 273.85 94.5196C275.589 95.0374 278.695 95.1837 287.947 95.1837H299.813V62.861H294.946V77.0301L281.009 77.012L271.859 62.861H269.195C267.248 62.861 266.594 63.0114 266.748 63.4146Z" fill="white"/>
<path fill-rule="evenodd" clip-rule="evenodd" d="M196.499 90.5344L221.498 90.2998V82.3433H205.127V77.9154H221.498V67.7317H194.95V62.8609H226.365V95.1841H196.231L196.499 90.5344Z" fill="white"/>
<path fill-rule="evenodd" clip-rule="evenodd" d="M142.299 84.2251C136.874 78.198 132.265 73.2 132.057 73.1188C131.849 73.0372 131.679 77.969 131.679 84.0778V95.184H126.812V62.8608H128.129C129.287 62.8608 130.666 64.202 139.523 73.9448L149.599 85.0277L149.835 62.8174L154.908 63.0825L155.14 95.184H153.652C152.269 95.184 151.47 94.4128 142.299 84.2251Z" fill="white"/>
<path fill-rule="evenodd" clip-rule="evenodd" d="M58.7796 77.9111C59.0848 73.5984 60.8104 70.9506 64.6422 68.9136C66.1818 68.0949 67.3145 67.9487 73.1637 67.8112L79.9115 67.652V90.5348L73.1637 90.2955C65.434 90.021 63.9387 89.5207 61.1466 86.2573C59.1644 83.9371 58.5141 81.6438 58.7796 77.9111ZM54.7314 85.8857C56.833 90.3399 61.0625 93.6163 66.1069 94.6877C67.394 94.9581 72.2257 95.1839 76.8405 95.1839H85.2344L84.9999 63.0825L77.4778 62.9584C73.3408 62.8876 68.7085 63.0251 67.1817 63.2639C61.3326 64.1673 57.0096 67.1692 54.8636 71.823C53.7222 74.2936 53.5853 75.073 53.5853 79.0223C53.5853 82.8657 53.7356 83.7691 54.7314 85.8857Z" fill="white"/>
<path fill-rule="evenodd" clip-rule="evenodd" d="M8.45462 63.0826L13.543 62.817V95.1841H8.22014L8.45462 63.0826Z" fill="white"/>
<path fill-rule="evenodd" clip-rule="evenodd" d="M579.803 25.9964C576.883 27.351 568.963 27.351 566.042 25.9964C561.366 23.8312 558.557 19.7667 558.547 15.1527C558.538 9.63989 561.543 5.57533 567.096 3.59163C570.233 2.47574 576.919 2.67524 579.803 3.97721C589.843 8.50229 589.843 21.3514 579.803 25.9964ZM591.17 8.064C589.705 5.07088 585.891 1.33348 582.989 0.0449569C581.834 -0.472934 579.693 -1.15053 578.232 -1.46478C573.158 -2.5631 567.043 -1.93874 562.808 0.111632C559.716 1.61258 556.118 5.11481 554.689 8.02833C553.583 10.2823 553.455 11.0127 553.464 14.9754C553.472 18.8854 553.614 19.6959 554.685 21.8873C556.105 24.8097 559.928 28.6085 562.662 29.8175C573.732 34.7194 586.414 31.2125 591.099 21.9582C592.272 19.6426 592.391 18.9914 592.391 14.9754C592.391 11.0395 592.254 10.2736 591.17 8.064Z" fill="white"/>
<path fill-rule="evenodd" clip-rule="evenodd" d="M489.311 8.19002C495.551 17.1084 495.902 17.5203 496.497 16.6225C496.842 16.1036 499.764 11.9347 502.991 7.35788L508.86 -0.964553H513.191V30.9157L508.118 31.1809L507.881 8.37195L505.019 12.5595C503.444 14.8621 500.729 18.7882 498.985 21.2825L495.814 25.8179L491.007 18.8585C488.365 15.0306 485.704 11.1377 485.095 10.2073L483.989 8.51667L483.546 30.9157L478.458 31.1814V-1.18577H482.751L489.311 8.19002Z" fill="white"/>
<path fill-rule="evenodd" clip-rule="evenodd" d="M647.287 12.0976H637.743V3.68467H647.38C655.702 3.68467 657.162 3.78649 658.109 4.43308C658.711 4.84501 659.348 5.39391 659.525 5.65079C660.043 6.3992 659.888 9.59596 659.3 10.3666C658.096 11.9291 656.941 12.0976 647.287 12.0976ZM665.941 30.5835C665.821 30.278 663.892 27.1474 661.649 23.6229C659.406 20.1032 657.738 17.154 657.941 17.079C662.467 15.4096 664.826 12.5446 665.092 8.40047C665.388 3.73325 663.344 0.815595 658.84 -0.521514C657.101 -1.03941 653.994 -1.18568 644.743 -1.18568H632.876V31.137H637.743V16.9679L651.681 16.986L660.831 31.137H663.494C665.441 31.137 666.096 30.9866 665.941 30.5835Z" fill="white"/>
<path fill-rule="evenodd" clip-rule="evenodd" d="M736.19 3.46361L711.191 3.69826V11.6548H727.562V16.0827H711.191V26.2663H737.739V31.1372H706.324V-1.18604H736.458L736.19 3.46361Z" fill="white"/>
<path fill-rule="evenodd" clip-rule="evenodd" d="M790.39 9.77293C795.815 15.8 800.424 20.798 800.632 20.8792C800.84 20.9608 801.01 16.029 801.01 9.92023V-1.186H805.877V31.1372H804.56C803.402 31.1372 802.024 29.796 793.166 20.0532L783.09 8.97025L782.854 31.1806L777.781 30.9155L777.549 -1.186H779.037C780.42 -1.186 781.22 -0.414845 790.39 9.77293Z" fill="white"/>
<path fill-rule="evenodd" clip-rule="evenodd" d="M873.91 16.0869C873.604 20.3996 871.879 23.0475 868.047 25.0844C866.507 25.9031 865.375 26.0494 859.525 26.1868L852.778 26.346V3.46322L859.525 3.70253C867.255 3.97698 868.75 4.4773 871.542 7.74073C873.525 10.0609 874.175 12.3542 873.91 16.0869ZM877.958 8.11236C875.856 3.65808 871.626 0.381722 866.582 -0.689722C865.295 -0.960039 860.463 -1.1859 855.849 -1.1859H847.455L847.689 30.9156L855.211 31.0396C859.348 31.1104 863.981 30.9729 865.507 30.7342C871.357 29.8307 875.68 26.8288 877.826 22.175C878.967 19.7044 879.104 18.925 879.104 14.9757C879.104 11.1324 878.954 10.2289 877.958 8.11236Z" fill="white"/>
<path fill-rule="evenodd" clip-rule="evenodd" d="M924.235 30.9154L919.146 31.181V-1.18559H924.469L924.235 30.9154Z" fill="white"/>
<path fill-rule="evenodd" clip-rule="evenodd" d="M823.769 68.0016C826.689 66.647 834.609 66.647 837.53 68.0016C842.206 70.1667 845.015 74.2313 845.025 78.8453C845.034 84.3581 842.029 88.4227 836.476 90.4064C833.339 91.5223 826.653 91.3227 823.769 90.0208C813.729 85.4957 813.729 72.6466 823.769 68.0016ZM812.402 85.934C813.867 88.9271 817.681 92.6645 820.583 93.953C821.738 94.4709 823.879 95.1485 825.339 95.4628C830.414 96.5606 836.529 95.9367 840.764 93.8864C843.856 92.3854 847.454 88.8832 848.883 85.9697C849.989 83.7156 850.117 82.9853 850.108 79.0226C850.1 75.1126 849.958 74.3026 848.887 72.1106C847.467 69.1883 843.644 65.3894 840.91 64.1805C829.84 59.2792 817.158 62.7855 812.473 72.0398C811.3 74.3554 811.181 75.0066 811.181 79.0226C811.181 82.959 811.318 83.725 812.402 85.934Z" fill="white"/>
<path fill-rule="evenodd" clip-rule="evenodd" d="M914.261 85.808C908.021 76.8897 907.67 76.4777 907.075 77.3755C906.73 77.8944 903.808 82.0634 900.581 86.6407L894.712 94.9626H890.381V63.0823L895.454 62.8172L895.691 85.6261L898.553 81.4385C900.128 79.1359 902.843 75.2099 904.587 72.7155L907.758 68.1801L912.565 75.1396C915.207 78.9674 917.868 82.8604 918.477 83.7907L919.583 85.4814L920.026 63.0823L925.114 62.8167V95.1838H920.821L914.261 85.808Z" fill="white"/>
<path fill-rule="evenodd" clip-rule="evenodd" d="M756.285 81.9005H765.829V90.3134H756.192C747.87 90.3134 746.409 90.2115 745.463 89.565C744.861 89.153 744.224 88.6041 744.046 88.3472C743.529 87.5988 743.684 84.4021 744.272 83.632C745.476 82.069 746.63 81.9005 756.285 81.9005ZM737.631 63.4146C737.751 63.72 739.68 66.8506 741.923 70.3751C744.166 73.8949 745.834 76.8441 745.631 76.919C741.105 78.5885 738.746 81.4534 738.48 85.5976C738.184 90.2648 740.228 93.1824 744.732 94.5196C746.471 95.0374 749.578 95.1837 758.829 95.1837H770.696V62.861H765.829V77.0301L751.891 77.012L742.741 62.861H740.078C738.131 62.861 737.476 63.0114 737.631 63.4146Z" fill="white"/>
<path fill-rule="evenodd" clip-rule="evenodd" d="M667.382 90.5344L692.381 90.2998V82.3433H676.01V77.9154H692.381V67.7317H665.833V62.8609H697.248V95.1841H667.114L667.382 90.5344Z" fill="white"/>
<path fill-rule="evenodd" clip-rule="evenodd" d="M613.182 84.2251C607.757 78.198 603.147 73.2 602.94 73.1188C602.732 73.0372 602.562 77.969 602.562 84.0778V95.184H597.695V62.8608H599.012C600.17 62.8608 601.548 64.202 610.406 73.9448L620.482 85.0277L620.718 62.8174L625.791 63.0825L626.023 95.184H624.535C623.152 95.184 622.352 94.4128 613.182 84.2251Z" fill="white"/>
<path fill-rule="evenodd" clip-rule="evenodd" d="M529.662 77.9111C529.968 73.5984 531.693 70.9506 535.525 68.9136C537.065 68.0949 538.197 67.9487 544.047 67.8112L550.794 67.652V90.5348L544.047 90.2955C536.317 90.021 534.822 89.5207 532.029 86.2573C530.047 83.9371 529.397 81.6438 529.662 77.9111ZM525.614 85.8857C527.716 90.3399 531.945 93.6163 536.989 94.6877C538.277 94.9581 543.109 95.1839 547.723 95.1839H556.117L555.883 63.0825L548.361 62.9584C544.224 62.8876 539.591 63.0251 538.065 63.2639C532.215 64.1673 527.892 67.1692 525.746 71.823C524.605 74.2936 524.468 75.073 524.468 79.0223C524.468 82.8657 524.618 83.7691 525.614 85.8857Z" fill="white"/>
<path fill-rule="evenodd" clip-rule="evenodd" d="M479.337 63.0826L484.426 62.817V95.1841H479.103L479.337 63.0826Z" fill="white"/>
<path fill-rule="evenodd" clip-rule="evenodd" d="M960.193 8.19002C966.434 17.1084 966.784 17.5203 967.38 16.6225C967.724 16.1036 970.646 11.9347 973.874 7.35788L979.743 -0.964553H984.073V30.9157L979.001 31.1809L978.764 8.37195L975.901 12.5595C974.326 14.8621 971.611 18.7882 969.868 21.2825L966.697 25.8179L961.89 18.8585C959.247 15.0306 956.586 11.1377 955.978 10.2073L954.872 8.51667L954.429 30.9157L949.341 31.1814V-1.18577H953.634L960.193 8.19002Z" fill="white"/>
<path fill-rule="evenodd" clip-rule="evenodd" d="M1000.55 77.9111C1000.85 73.5984 1002.58 70.9506 1006.41 68.9136C1007.95 68.0949 1009.08 67.9487 1014.93 67.8112L1021.68 67.652V90.5348L1014.93 90.2955C1007.2 90.021 1005.7 89.5207 1002.91 86.2573C1000.93 83.9371 1000.28 81.6438 1000.55 77.9111ZM996.497 85.8857C998.599 90.3399 1002.83 93.6163 1007.87 94.6877C1009.16 94.9581 1013.99 95.1839 1018.61 95.1839H1027L1026.77 63.0825L1019.24 62.9584C1015.11 62.8876 1010.47 63.0251 1008.95 63.2639C1003.1 64.1673 998.775 67.1692 996.629 71.823C995.488 74.2936 995.351 75.073 995.351 79.0223C995.351 82.8657 995.501 83.7691 996.497 85.8857Z" fill="white"/>
<path fill-rule="evenodd" clip-rule="evenodd" d="M950.22 63.0826L955.308 62.817V95.1841H949.986L950.22 63.0826Z" fill="white"/>
<path fill-rule="evenodd" clip-rule="evenodd" d="M29.8657 125.705L4.86682 125.94V133.897H21.2378V138.325H4.86682V148.508H31.4146V153.379H0V121.056H30.1337L29.8657 125.705Z" fill="white"/>
<path fill-rule="evenodd" clip-rule="evenodd" d="M84.0657 132.015C89.4914 138.042 94.1005 143.04 94.3081 143.121C94.5162 143.203 94.6862 138.271 94.6862 132.162V121.056H99.553V153.379H98.236C97.078 153.379 95.6995 152.038 86.8423 142.295L76.7663 131.212L76.5297 153.423L71.4568 153.158L71.2249 121.056H72.7129C74.096 121.056 74.8956 121.827 84.0657 132.015Z" fill="white"/>
<path fill-rule="evenodd" clip-rule="evenodd" d="M167.585 138.329C167.28 142.642 165.555 145.29 161.723 147.327C160.183 148.145 159.05 148.292 153.201 148.429L146.453 148.588V125.705L153.201 125.945C160.931 126.219 162.426 126.72 165.218 129.983C167.201 132.303 167.851 134.596 167.585 138.329ZM171.634 130.355C169.532 125.9 165.303 122.624 160.258 121.553C158.971 121.282 154.139 121.056 149.524 121.056H141.131L141.365 153.158L148.887 153.282C153.024 153.353 157.656 153.215 159.183 152.976C165.032 152.073 169.355 149.071 171.501 144.417C172.643 141.947 172.78 141.167 172.78 137.218C172.78 133.375 172.629 132.471 171.634 130.355Z" fill="white"/>
<path fill-rule="evenodd" clip-rule="evenodd" d="M217.91 153.158L212.822 153.423V121.057H218.145L217.91 153.158Z" fill="white"/>
<path fill-rule="evenodd" clip-rule="evenodd" d="M117.445 190.244C120.365 188.889 128.285 188.889 131.205 190.244C135.882 192.409 138.691 196.473 138.701 201.087C138.709 206.6 135.705 210.665 130.152 212.649C127.015 213.764 120.329 213.565 117.445 212.263C107.405 207.738 107.405 194.889 117.445 190.244ZM106.078 208.176C107.543 211.169 111.356 214.907 114.259 216.195C115.414 216.713 117.555 217.391 119.015 217.705C124.09 218.803 130.205 218.179 134.44 216.129C137.532 214.628 141.13 211.125 142.559 208.212C143.665 205.958 143.793 205.228 143.784 201.265C143.776 197.355 143.634 196.545 142.563 194.353C141.143 191.431 137.32 187.632 134.586 186.423C123.515 181.521 110.834 185.028 106.149 194.282C104.976 196.598 104.857 197.249 104.857 201.265C104.857 205.201 104.994 205.967 106.078 208.176Z" fill="white"/>
<path fill-rule="evenodd" clip-rule="evenodd" d="M207.937 208.05C201.697 199.132 201.346 198.72 200.751 199.618C200.406 200.137 197.484 204.306 194.257 208.883L188.388 217.205H184.057V185.324L189.13 185.059L189.366 207.868L192.229 203.681C193.804 201.378 196.519 197.452 198.263 194.958L201.434 190.422L206.24 197.382C208.883 201.21 211.544 205.103 212.153 206.033L213.259 207.724L213.702 185.324L218.79 185.059V217.426H214.497L207.937 208.05Z" fill="white"/>
<path fill-rule="evenodd" clip-rule="evenodd" d="M49.9609 204.143H59.5045V212.556H49.8679C41.5453 212.556 40.0852 212.454 39.1385 211.807C38.5368 211.395 37.8994 210.846 37.7223 210.589C37.2048 209.841 37.3597 206.644 37.948 205.874C39.1514 204.311 40.3063 204.143 49.9609 204.143ZM31.307 185.657C31.4264 185.962 33.3554 189.093 35.5985 192.617C37.8421 196.137 39.5098 199.086 39.3063 199.161C34.7799 200.831 32.4216 203.696 32.1561 207.84C31.8597 212.507 33.9039 215.425 38.4082 216.762C40.1472 217.28 43.2533 217.426 52.5051 217.426H64.3718V185.103H59.5045V199.272L45.5672 199.254L36.4171 185.103H33.7536C31.807 185.103 31.1521 185.254 31.307 185.657Z" fill="white"/>
<path fill-rule="evenodd" clip-rule="evenodd" d="M344.362 148.239C341.441 149.593 333.521 149.593 330.601 148.239C325.924 146.073 323.115 142.009 323.106 137.395C323.097 131.882 326.101 127.818 331.654 125.834C334.791 124.718 341.477 124.917 344.362 126.219C354.401 130.744 354.401 143.594 344.362 148.239ZM355.728 130.306C354.264 127.313 350.45 123.576 347.547 122.287C346.392 121.769 344.251 121.092 342.791 120.777C337.716 119.68 331.601 120.303 327.367 122.354C324.274 123.855 320.677 127.357 319.248 130.271C318.141 132.525 318.013 133.255 318.022 137.218C318.031 141.128 318.172 141.938 319.244 144.13C320.664 147.052 324.486 150.851 327.221 152.06C338.291 156.962 350.972 153.455 355.658 144.2C356.83 141.885 356.949 141.234 356.949 137.218C356.949 133.282 356.813 132.515 355.728 130.306Z" fill="white"/>
<path fill-rule="evenodd" clip-rule="evenodd" d="M253.869 130.432C260.109 139.351 260.46 139.762 261.056 138.865C261.4 138.346 264.322 134.177 267.55 129.6L273.419 121.278H277.749V153.158L272.676 153.423L272.44 130.614L269.577 134.802C268.002 137.104 265.287 141.03 263.543 143.525L260.373 148.06L255.566 141.101C252.923 137.273 250.262 133.38 249.654 132.449L248.547 130.759L248.105 153.158L243.016 153.424V121.056H247.309L253.869 130.432Z" fill="white"/>
<path fill-rule="evenodd" clip-rule="evenodd" d="M411.845 134.34H402.301V125.927H411.938C420.261 125.927 421.721 126.029 422.668 126.675C423.27 127.087 423.907 127.636 424.084 127.893C424.602 128.641 424.447 131.838 423.858 132.608C422.655 134.171 421.5 134.34 411.845 134.34ZM430.499 152.826C430.38 152.52 428.451 149.39 426.208 145.865C423.964 142.345 422.297 139.396 422.5 139.321C427.026 137.652 429.385 134.787 429.65 130.643C429.947 125.975 427.902 123.058 423.398 121.721C421.659 121.203 418.553 121.056 409.301 121.056H397.435V153.379H402.301V139.21L416.239 139.228L425.389 153.379H428.053C429.999 153.379 430.654 153.229 430.499 152.826Z" fill="white"/>
<path fill-rule="evenodd" clip-rule="evenodd" d="M500.749 125.705L475.75 125.94V133.897H492.121V138.325H475.75V148.508H502.297V153.379H470.883V121.056H501.017L500.749 125.705Z" fill="white"/>
<path fill-rule="evenodd" clip-rule="evenodd" d="M554.948 132.015C560.374 138.042 564.983 143.04 565.191 143.121C565.399 143.203 565.569 138.271 565.569 132.162V121.056H570.436V153.379H569.119C567.961 153.379 566.582 152.038 557.725 142.295L547.649 131.212L547.412 153.423L542.339 153.158L542.108 121.056H543.596C544.979 121.056 545.778 121.827 554.948 132.015Z" fill="white"/>
<path fill-rule="evenodd" clip-rule="evenodd" d="M638.468 138.329C638.163 142.642 636.437 145.29 632.606 147.327C631.066 148.145 629.933 148.292 624.084 148.429L617.336 148.588V125.705L624.084 125.945C631.814 126.219 633.309 126.72 636.101 129.983C638.083 132.303 638.734 134.596 638.468 138.329ZM642.517 130.355C640.415 125.9 636.185 122.624 631.141 121.553C629.853 121.282 625.022 121.056 620.407 121.056H612.013L612.248 153.158L619.77 153.282C623.907 153.353 628.539 153.215 630.066 152.976C635.915 152.073 640.238 149.071 642.384 144.417C643.526 141.947 643.662 141.167 643.662 137.218C643.662 133.375 643.512 132.471 642.517 130.355Z" fill="white"/>
<path fill-rule="evenodd" clip-rule="evenodd" d="M688.793 153.158L683.705 153.423V121.057H689.028L688.793 153.158Z" fill="white"/>
<path fill-rule="evenodd" clip-rule="evenodd" d="M588.327 190.244C591.248 188.889 599.168 188.889 602.088 190.244C606.765 192.409 609.574 196.473 609.583 201.087C609.592 206.6 606.588 210.665 601.035 212.649C597.898 213.764 591.212 213.565 588.327 212.263C578.288 207.738 578.288 194.889 588.327 190.244ZM576.961 208.176C578.425 211.169 582.239 214.907 585.142 216.195C586.297 216.713 588.438 217.391 589.898 217.705C594.973 218.803 601.088 218.179 605.322 216.129C608.415 214.628 612.012 211.125 613.442 208.212C614.547 205.958 614.676 205.228 614.667 201.265C614.658 197.355 614.517 196.545 613.446 194.353C612.025 191.431 608.203 187.632 605.469 186.423C594.398 181.521 581.717 185.028 577.031 194.282C575.859 196.598 575.74 197.249 575.74 201.265C575.74 205.201 575.877 205.967 576.961 208.176Z" fill="white"/>
<path fill-rule="evenodd" clip-rule="evenodd" d="M678.82 208.05C672.58 199.132 672.229 198.72 671.634 199.618C671.289 200.137 668.367 204.306 665.139 208.883L659.271 217.205H654.94V185.324L660.013 185.059L660.249 207.868L663.112 203.681C664.687 201.378 667.402 197.452 669.146 194.958L672.316 190.422L677.123 197.382C679.766 201.21 682.427 205.103 683.035 206.033L684.142 207.724L684.584 185.324L689.673 185.059V217.426H685.38L678.82 208.05Z" fill="white"/>
<path fill-rule="evenodd" clip-rule="evenodd" d="M520.844 204.143H530.387V212.556H520.751C512.428 212.556 510.968 212.454 510.021 211.807C509.42 211.395 508.782 210.846 508.605 210.589C508.088 209.841 508.243 206.644 508.831 205.874C510.034 204.311 511.189 204.143 520.844 204.143ZM502.19 185.657C502.309 185.962 504.238 189.093 506.481 192.617C508.725 196.137 510.393 199.086 510.189 199.161C505.663 200.831 503.304 203.696 503.039 207.84C502.743 212.507 504.787 215.425 509.291 216.762C511.03 217.28 514.136 217.426 523.388 217.426H535.255V185.103H530.387V199.272L516.45 199.254L507.3 185.103H504.636C502.69 185.103 502.035 185.254 502.19 185.657Z" fill="white"/>
<path fill-rule="evenodd" clip-rule="evenodd" d="M431.941 212.777L456.94 212.542V204.585H440.569V200.158H456.94V189.974H430.392V185.103H461.806V217.426H431.673L431.941 212.777Z" fill="white"/>
<path fill-rule="evenodd" clip-rule="evenodd" d="M377.741 206.467C372.315 200.44 367.706 195.442 367.498 195.361C367.29 195.279 367.12 200.211 367.12 206.32V217.426H362.253V185.103H363.57C364.728 185.103 366.107 186.444 374.964 196.187L385.04 207.27L385.277 185.06L390.35 185.325L390.582 217.426H389.094C387.71 217.426 386.911 216.655 377.741 206.467Z" fill="white"/>
<path fill-rule="evenodd" clip-rule="evenodd" d="M294.221 200.153C294.526 195.841 296.252 193.193 300.084 191.156C301.623 190.337 302.756 190.191 308.606 190.053L315.353 189.894V212.777L308.606 212.538C300.875 212.263 299.38 211.763 296.588 208.499C294.606 206.179 293.956 203.886 294.221 200.153ZM290.173 208.128C292.274 212.582 296.504 215.858 301.548 216.93C302.836 217.2 307.667 217.426 312.282 217.426H320.676L320.441 185.325L312.919 185.201C308.782 185.13 304.15 185.267 302.623 185.506C296.774 186.409 292.451 189.411 290.305 194.065C289.164 196.536 289.027 197.315 289.027 201.264C289.027 205.108 289.177 206.011 290.173 208.128Z" fill="white"/>
<path fill-rule="evenodd" clip-rule="evenodd" d="M243.896 185.325L248.984 185.059V217.426H243.661L243.896 185.325Z" fill="white"/>
<path fill-rule="evenodd" clip-rule="evenodd" d="M815.244 148.239C812.324 149.593 804.404 149.593 801.484 148.239C796.807 146.073 793.998 142.009 793.989 137.395C793.98 131.882 796.984 127.818 802.537 125.834C805.674 124.718 812.36 124.917 815.244 126.219C825.284 130.744 825.284 143.594 815.244 148.239ZM826.611 130.306C825.146 127.313 821.333 123.576 818.43 122.287C817.275 121.769 815.134 121.092 813.674 120.777C808.599 119.68 802.484 120.303 798.25 122.354C795.157 123.855 791.56 127.357 790.13 130.271C789.025 132.525 788.896 133.255 788.905 137.218C788.914 141.128 789.055 141.938 790.126 144.13C791.547 147.052 795.369 150.851 798.103 152.06C809.174 156.962 821.855 153.455 826.54 144.2C827.713 141.885 827.832 141.234 827.832 137.218C827.832 133.282 827.695 132.515 826.611 130.306Z" fill="white"/>
<path fill-rule="evenodd" clip-rule="evenodd" d="M724.752 130.432C730.992 139.351 731.343 139.762 731.938 138.865C732.283 138.346 735.205 134.177 738.433 129.6L744.302 121.278H748.632V153.158L743.559 153.423L743.323 130.614L740.46 134.802C738.885 137.104 736.17 141.03 734.426 143.525L731.256 148.06L726.449 141.101C723.806 137.273 721.145 133.38 720.536 132.449L719.43 130.759L718.988 153.158L713.899 153.424V121.056H718.192L724.752 130.432Z" fill="white"/>
<path fill-rule="evenodd" clip-rule="evenodd" d="M882.728 134.34H873.184V125.927H882.821C891.144 125.927 892.604 126.029 893.55 126.675C894.152 127.087 894.79 127.636 894.967 127.893C895.484 128.641 895.329 131.838 894.741 132.608C893.538 134.171 892.383 134.34 882.728 134.34ZM901.382 152.826C901.263 152.52 899.334 149.39 897.091 145.865C894.847 142.345 893.179 139.396 893.383 139.321C897.909 137.652 900.267 134.787 900.533 130.643C900.829 125.975 898.785 123.058 894.281 121.721C892.542 121.203 889.436 121.056 880.184 121.056H868.317V153.379H873.184V139.21L887.122 139.228L896.272 153.379H898.935C900.882 153.379 901.537 153.229 901.382 152.826Z" fill="white"/>
<path fill-rule="evenodd" clip-rule="evenodd" d="M971.631 125.705L946.632 125.94V133.897H963.003V138.325H946.632V148.508H973.18V153.379H941.766V121.056H971.899L971.631 125.705Z" fill="white"/>
<path fill-rule="evenodd" clip-rule="evenodd" d="M991.726 204.143H1001.27V212.556H991.633C983.311 212.556 981.851 212.454 980.904 211.807C980.302 211.395 979.665 210.846 979.488 210.589C978.97 209.841 979.125 206.644 979.714 205.874C980.917 204.311 982.072 204.143 991.726 204.143ZM973.073 185.657C973.192 185.962 975.121 189.093 977.364 192.617C979.608 196.137 981.275 199.086 981.072 199.161C976.546 200.831 974.187 203.696 973.922 207.84C973.625 212.507 975.669 215.425 980.174 216.762C981.913 217.28 985.019 217.426 994.271 217.426H1006.14V185.103H1001.27V199.272L987.333 199.254L978.183 185.103H975.519C973.573 185.103 972.918 185.254 973.073 185.657Z" fill="white"/>
<path fill-rule="evenodd" clip-rule="evenodd" d="M902.823 212.777L927.822 212.542V204.585H911.451V200.158H927.822V189.974H901.275V185.103H932.689V217.426H902.555L902.823 212.777Z" fill="white"/>
<path fill-rule="evenodd" clip-rule="evenodd" d="M848.624 206.467C843.198 200.44 838.589 195.442 838.381 195.361C838.173 195.279 838.003 200.211 838.003 206.32V217.426H833.136V185.103H834.453C835.611 185.103 836.99 186.444 845.847 196.187L855.923 207.27L856.16 185.06L861.232 185.325L861.464 217.426H859.976C858.593 217.426 857.794 216.655 848.624 206.467Z" fill="white"/>
<path fill-rule="evenodd" clip-rule="evenodd" d="M765.104 200.153C765.409 195.841 767.135 193.193 770.966 191.156C772.506 190.337 773.639 190.191 779.488 190.053L786.236 189.894V212.777L779.488 212.538C771.758 212.263 770.263 211.763 767.471 208.499C765.489 206.179 764.838 203.886 765.104 200.153ZM761.055 208.128C763.157 212.582 767.387 215.858 772.431 216.93C773.719 217.2 778.55 217.426 783.165 217.426H791.559L791.324 185.325L783.802 185.201C779.665 185.13 775.033 185.267 773.506 185.506C767.657 186.409 763.334 189.411 761.188 194.065C760.046 196.536 759.909 197.315 759.909 201.264C759.909 205.108 760.06 206.011 761.055 208.128Z" fill="white"/>
<path fill-rule="evenodd" clip-rule="evenodd" d="M714.779 185.325L719.867 185.059V217.426H714.544L714.779 185.325Z" fill="white"/>
<path fill-rule="evenodd" clip-rule="evenodd" d="M108.92 270.481C106 271.835 98.0799 271.835 95.1597 270.481C90.4829 268.316 87.6738 264.251 87.6645 259.637C87.6557 254.124 90.6601 250.06 96.2128 248.076C99.3499 246.96 106.036 247.16 108.92 248.462C118.96 252.987 118.96 265.836 108.92 270.481ZM120.287 252.548C118.822 249.555 115.009 245.818 112.106 244.529C110.951 244.011 108.81 243.334 107.35 243.02C102.275 241.922 96.1601 242.546 91.9255 244.596C88.8327 246.097 85.2354 249.599 83.8063 252.513C82.7 254.767 82.5719 255.497 82.5807 259.46C82.5895 263.37 82.731 264.18 83.8022 266.372C85.2225 269.294 89.045 273.093 91.7793 274.302C102.85 279.203 115.531 275.697 120.216 266.442C121.389 264.127 121.508 263.476 121.508 259.46C121.508 255.524 121.371 254.757 120.287 252.548Z" fill="white"/>
<path fill-rule="evenodd" clip-rule="evenodd" d="M18.4279 252.674C24.668 261.593 25.0187 262.005 25.6142 261.107C25.9587 260.588 28.881 256.419 32.1085 251.842L37.9773 243.52H42.308V275.4L37.2351 275.665L36.9985 252.856L34.1357 257.044C32.5609 259.346 29.8458 263.272 28.1021 265.767L24.9314 270.302L20.1245 263.343C17.4817 259.515 14.8207 255.622 14.2123 254.692L13.106 253.001L12.6634 275.4L7.575 275.666V243.299H11.868L18.4279 252.674Z" fill="white"/>
<path fill-rule="evenodd" clip-rule="evenodd" d="M176.404 256.582H166.86V248.169H176.497C184.82 248.169 186.28 248.271 187.226 248.917C187.828 249.329 188.465 249.878 188.643 250.135C189.16 250.884 189.005 254.08 188.417 254.85C187.214 256.413 186.059 256.582 176.404 256.582ZM195.058 275.068C194.939 274.762 193.01 271.632 190.766 268.107C188.523 264.587 186.855 261.638 187.059 261.563C191.585 259.894 193.943 257.029 194.209 252.885C194.505 248.218 192.461 245.3 187.957 243.963C186.218 243.445 183.112 243.299 173.86 243.299H161.993V275.621H166.86V261.452L180.798 261.47L189.948 275.621H192.611C194.558 275.621 195.213 275.471 195.058 275.068Z" fill="white"/>
<path fill-rule="evenodd" clip-rule="evenodd" d="M265.307 247.948L240.308 248.183V256.139H256.679V260.567H240.308V270.751H266.856V275.621H235.441V243.299H265.575L265.307 247.948Z" fill="white"/>
<path fill-rule="evenodd" clip-rule="evenodd" d="M319.507 254.257C324.933 260.284 329.542 265.282 329.749 265.364C329.958 265.445 330.128 260.513 330.128 254.405V243.298H334.994V275.622H333.677C332.519 275.622 331.141 274.28 322.284 264.538L312.208 253.455L311.971 275.665L306.898 275.4L306.666 243.298H308.154C309.537 243.298 310.337 244.07 319.507 254.257Z" fill="white"/>
<path fill-rule="evenodd" clip-rule="evenodd" d="M403.027 260.571C402.721 264.884 400.996 267.532 397.164 269.569C395.624 270.387 394.492 270.534 388.643 270.671L381.895 270.83V247.948L388.643 248.187C396.372 248.461 397.868 248.962 400.66 252.225C402.642 254.545 403.292 256.839 403.027 260.571ZM407.075 252.597C404.973 248.142 400.744 244.866 395.699 243.795C394.412 243.524 389.581 243.298 384.966 243.298H376.572L376.806 275.4L384.328 275.524C388.465 275.595 393.098 275.457 394.625 275.219C400.474 274.315 404.797 271.313 406.943 266.659C408.084 264.189 408.221 263.409 408.221 259.46C408.221 255.617 408.071 254.713 407.075 252.597Z" fill="white"/>
<path fill-rule="evenodd" clip-rule="evenodd" d="M453.352 275.4L448.264 275.665V243.299H453.586L453.352 275.4Z" fill="white"/>
<path fill-rule="evenodd" clip-rule="evenodd" d="M352.886 312.486C355.806 311.131 363.727 311.131 366.647 312.486C371.323 314.651 374.133 318.716 374.142 323.33C374.151 328.842 371.146 332.907 365.594 334.891C362.456 336.007 355.771 335.807 352.886 334.505C342.847 329.98 342.847 317.131 352.886 312.486ZM341.519 330.418C342.984 333.411 346.798 337.149 349.7 338.437C350.855 338.955 352.997 339.633 354.457 339.947C359.532 341.045 365.646 340.421 369.881 338.371C372.974 336.87 376.571 333.368 378 330.454C379.106 328.2 379.234 327.47 379.226 323.507C379.217 319.597 379.075 318.787 378.004 316.595C376.584 313.673 372.761 309.874 370.027 308.665C358.957 303.764 346.276 307.27 341.59 316.524C340.418 318.84 340.298 319.491 340.298 323.507C340.298 327.443 340.435 328.209 341.519 330.418Z" fill="white"/>
<path fill-rule="evenodd" clip-rule="evenodd" d="M443.379 330.292C437.138 321.374 436.788 320.962 436.192 321.86C435.848 322.379 432.925 326.548 429.698 331.125L423.829 339.447H419.498V307.567L424.571 307.301L424.808 330.11L427.671 325.923C429.246 323.62 431.961 319.694 433.704 317.2L436.875 312.664L441.682 319.624C444.325 323.452 446.986 327.345 447.594 328.275L448.7 329.966L449.143 307.567L454.231 307.301V339.668H449.938L443.379 330.292Z" fill="white"/>
<path fill-rule="evenodd" clip-rule="evenodd" d="M285.402 326.385H294.946V334.798H285.309C276.987 334.798 275.527 334.696 274.58 334.049C273.978 333.637 273.341 333.088 273.164 332.832C272.646 332.083 272.801 328.886 273.389 328.116C274.593 326.553 275.748 326.385 285.402 326.385ZM266.748 307.899C266.868 308.204 268.797 311.335 271.04 314.859C273.284 318.379 274.951 321.328 274.748 321.403C270.221 323.073 267.863 325.938 267.598 330.082C267.301 334.749 269.345 337.667 273.85 339.004C275.589 339.522 278.695 339.668 287.947 339.668H299.813V307.345H294.946V321.514L281.009 321.496L271.859 307.345H269.195C267.248 307.345 266.594 307.496 266.748 307.899Z" fill="white"/>
<path fill-rule="evenodd" clip-rule="evenodd" d="M196.499 335.019L221.498 334.784V326.828H205.127V322.4H221.498V312.216H194.95V307.345H226.365V339.668H196.231L196.499 335.019Z" fill="white"/>
<path fill-rule="evenodd" clip-rule="evenodd" d="M142.299 328.709C136.874 322.682 132.265 317.684 132.057 317.603C131.849 317.521 131.679 322.453 131.679 328.562V339.668H126.812V307.345H128.129C129.287 307.345 130.666 308.686 139.523 318.429L149.599 329.512L149.835 307.302L154.908 307.567L155.14 339.668H153.652C152.269 339.668 151.47 338.897 142.299 328.709Z" fill="white"/>
<path fill-rule="evenodd" clip-rule="evenodd" d="M58.7796 322.395C59.0848 318.083 60.8104 315.435 64.6422 313.398C66.1818 312.579 67.3145 312.433 73.1637 312.295L79.9115 312.136V335.019L73.1637 334.78C65.434 334.505 63.9387 334.005 61.1466 330.742C59.1644 328.421 58.5141 326.128 58.7796 322.395ZM54.7314 330.37C56.833 334.824 61.0625 338.101 66.1069 339.172C67.394 339.442 72.2257 339.668 76.8405 339.668H85.2344L84.9999 307.567L77.4778 307.443C73.3408 307.372 68.7085 307.509 67.1817 307.748C61.3326 308.652 57.0096 311.654 54.8636 316.307C53.7222 318.778 53.5853 319.557 53.5853 323.507C53.5853 327.35 53.7356 328.253 54.7314 330.37Z" fill="white"/>
<path fill-rule="evenodd" clip-rule="evenodd" d="M8.45462 307.567L13.543 307.301V339.668H8.22014L8.45462 307.567Z" fill="white"/>
<path fill-rule="evenodd" clip-rule="evenodd" d="M579.803 270.481C576.883 271.835 568.963 271.835 566.042 270.481C561.366 268.316 558.557 264.251 558.547 259.637C558.538 254.124 561.543 250.06 567.096 248.076C570.233 246.96 576.919 247.16 579.803 248.462C589.843 252.987 589.843 265.836 579.803 270.481ZM591.17 252.548C589.705 249.555 585.891 245.818 582.989 244.529C581.834 244.011 579.693 243.334 578.232 243.02C573.158 241.922 567.043 242.546 562.808 244.596C559.716 246.097 556.118 249.599 554.689 252.513C553.583 254.767 553.455 255.497 553.464 259.46C553.472 263.37 553.614 264.18 554.685 266.372C556.105 269.294 559.928 273.093 562.662 274.302C573.732 279.203 586.414 275.697 591.099 266.442C592.272 264.127 592.391 263.476 592.391 259.46C592.391 255.524 592.254 254.757 591.17 252.548Z" fill="white"/>
<path fill-rule="evenodd" clip-rule="evenodd" d="M489.311 252.674C495.551 261.593 495.902 262.005 496.497 261.107C496.842 260.588 499.764 256.419 502.991 251.842L508.86 243.52H513.191V275.4L508.118 275.665L507.881 252.856L505.019 257.044C503.444 259.346 500.729 263.272 498.985 265.767L495.814 270.302L491.007 263.343C488.365 259.515 485.704 255.622 485.095 254.692L483.989 253.001L483.546 275.4L478.458 275.666V243.299H482.751L489.311 252.674Z" fill="white"/>
<path fill-rule="evenodd" clip-rule="evenodd" d="M647.287 256.582H637.743V248.169H647.38C655.702 248.169 657.162 248.271 658.109 248.917C658.711 249.329 659.348 249.878 659.525 250.135C660.043 250.884 659.888 254.08 659.3 254.85C658.096 256.413 656.941 256.582 647.287 256.582ZM665.941 275.068C665.821 274.762 663.892 271.632 661.649 268.107C659.406 264.587 657.738 261.638 657.941 261.563C662.467 259.894 664.826 257.029 665.092 252.885C665.388 248.218 663.344 245.3 658.84 243.963C657.101 243.445 653.994 243.299 644.743 243.299H632.876V275.621H637.743V261.452L651.681 261.47L660.831 275.621H663.494C665.441 275.621 666.096 275.471 665.941 275.068Z" fill="white"/>
<path fill-rule="evenodd" clip-rule="evenodd" d="M736.19 247.948L711.191 248.183V256.139H727.562V260.567H711.191V270.751H737.739V275.621H706.324V243.299H736.458L736.19 247.948Z" fill="white"/>
<path fill-rule="evenodd" clip-rule="evenodd" d="M790.39 254.257C795.815 260.284 800.424 265.282 800.632 265.364C800.84 265.445 801.01 260.513 801.01 254.405V243.298H805.877V275.622H804.56C803.402 275.622 802.024 274.28 793.166 264.538L783.09 253.455L782.854 275.665L777.781 275.4L777.549 243.298H779.037C780.42 243.298 781.22 244.07 790.39 254.257Z" fill="white"/>
<path fill-rule="evenodd" clip-rule="evenodd" d="M873.91 260.571C873.604 264.884 871.879 267.532 868.047 269.569C866.507 270.387 865.375 270.534 859.525 270.671L852.778 270.83V247.948L859.525 248.187C867.255 248.461 868.75 248.962 871.542 252.225C873.525 254.545 874.175 256.839 873.91 260.571ZM877.958 252.597C875.856 248.142 871.626 244.866 866.582 243.795C865.295 243.524 860.463 243.298 855.849 243.298H847.455L847.689 275.4L855.211 275.524C859.348 275.595 863.981 275.457 865.507 275.219C871.357 274.315 875.68 271.313 877.826 266.659C878.967 264.189 879.104 263.409 879.104 259.46C879.104 255.617 878.954 254.713 877.958 252.597Z" fill="white"/>
<path fill-rule="evenodd" clip-rule="evenodd" d="M924.235 275.4L919.146 275.665V243.299H924.469L924.235 275.4Z" fill="white"/>
<path fill-rule="evenodd" clip-rule="evenodd" d="M823.769 312.486C826.689 311.131 834.609 311.131 837.53 312.486C842.206 314.651 845.015 318.716 845.025 323.33C845.034 328.842 842.029 332.907 836.476 334.891C833.339 336.007 826.653 335.807 823.769 334.505C813.729 329.98 813.729 317.131 823.769 312.486ZM812.402 330.418C813.867 333.411 817.681 337.149 820.583 338.437C821.738 338.955 823.879 339.633 825.339 339.947C830.414 341.045 836.529 340.421 840.764 338.371C843.856 336.87 847.454 333.368 848.883 330.454C849.989 328.2 850.117 327.47 850.108 323.507C850.1 319.597 849.958 318.787 848.887 316.595C847.467 313.673 843.644 309.874 840.91 308.665C829.84 303.764 817.158 307.27 812.473 316.524C811.3 318.84 811.181 319.491 811.181 323.507C811.181 327.443 811.318 328.209 812.402 330.418Z" fill="white"/>
<path fill-rule="evenodd" clip-rule="evenodd" d="M914.261 330.292C908.021 321.374 907.67 320.962 907.075 321.86C906.73 322.379 903.808 326.548 900.581 331.125L894.712 339.447H890.381V307.567L895.454 307.301L895.691 330.11L898.553 325.923C900.128 323.62 902.843 319.694 904.587 317.2L907.758 312.664L912.565 319.624C915.207 323.452 917.868 327.345 918.477 328.275L919.583 329.966L920.026 307.567L925.114 307.301V339.668H920.821L914.261 330.292Z" fill="white"/>
<path fill-rule="evenodd" clip-rule="evenodd" d="M756.285 326.385H765.829V334.798H756.192C747.87 334.798 746.409 334.696 745.463 334.049C744.861 333.637 744.224 333.088 744.046 332.832C743.529 332.083 743.684 328.886 744.272 328.116C745.476 326.553 746.63 326.385 756.285 326.385ZM737.631 307.899C737.751 308.204 739.68 311.335 741.923 314.859C744.166 318.379 745.834 321.328 745.631 321.403C741.105 323.073 738.746 325.938 738.48 330.082C738.184 334.749 740.228 337.667 744.732 339.004C746.471 339.522 749.578 339.668 758.829 339.668H770.696V307.345H765.829V321.514L751.891 321.496L742.741 307.345H740.078C738.131 307.345 737.476 307.496 737.631 307.899Z" fill="white"/>
<path fill-rule="evenodd" clip-rule="evenodd" d="M667.382 335.019L692.381 334.784V326.828H676.01V322.4H692.381V312.216H665.833V307.345H697.248V339.668H667.114L667.382 335.019Z" fill="white"/>
<path fill-rule="evenodd" clip-rule="evenodd" d="M613.182 328.709C607.757 322.682 603.147 317.684 602.94 317.603C602.732 317.521 602.562 322.453 602.562 328.562V339.668H597.695V307.345H599.012C600.17 307.345 601.548 308.686 610.406 318.429L620.482 329.512L620.718 307.302L625.791 307.567L626.023 339.668H624.535C623.152 339.668 622.352 338.897 613.182 328.709Z" fill="white"/>
<path fill-rule="evenodd" clip-rule="evenodd" d="M529.662 322.395C529.968 318.083 531.693 315.435 535.525 313.398C537.065 312.579 538.197 312.433 544.047 312.295L550.794 312.136V335.019L544.047 334.78C536.317 334.505 534.822 334.005 532.029 330.742C530.047 328.421 529.397 326.128 529.662 322.395ZM525.614 330.37C527.716 334.824 531.945 338.101 536.989 339.172C538.277 339.442 543.109 339.668 547.723 339.668H556.117L555.883 307.567L548.361 307.443C544.224 307.372 539.591 307.509 538.065 307.748C532.215 308.652 527.892 311.654 525.746 316.307C524.605 318.778 524.468 319.557 524.468 323.507C524.468 327.35 524.618 328.253 525.614 330.37Z" fill="white"/>
<path fill-rule="evenodd" clip-rule="evenodd" d="M479.337 307.567L484.426 307.301V339.668H479.103L479.337 307.567Z" fill="white"/>
<path fill-rule="evenodd" clip-rule="evenodd" d="M960.193 252.674C966.434 261.593 966.784 262.005 967.38 261.107C967.724 260.588 970.646 256.419 973.874 251.842L979.743 243.52H984.073V275.4L979.001 275.665L978.764 252.856L975.901 257.044C974.326 259.346 971.611 263.272 969.868 265.767L966.697 270.302L961.89 263.343C959.247 259.515 956.586 255.622 955.978 254.692L954.872 253.001L954.429 275.4L949.341 275.666V243.299H953.634L960.193 252.674Z" fill="white"/>
<path fill-rule="evenodd" clip-rule="evenodd" d="M1000.55 322.395C1000.85 318.083 1002.58 315.435 1006.41 313.398C1007.95 312.579 1009.08 312.433 1014.93 312.295L1021.68 312.136V335.019L1014.93 334.78C1007.2 334.505 1005.7 334.005 1002.91 330.742C1000.93 328.421 1000.28 326.128 1000.55 322.395ZM996.497 330.37C998.599 334.824 1002.83 338.101 1007.87 339.172C1009.16 339.442 1013.99 339.668 1018.61 339.668H1027L1026.77 307.567L1019.24 307.443C1015.11 307.372 1010.47 307.509 1008.95 307.748C1003.1 308.652 998.775 311.654 996.629 316.307C995.488 318.778 995.351 319.557 995.351 323.507C995.351 327.35 995.501 328.253 996.497 330.37Z" fill="white"/>
<path fill-rule="evenodd" clip-rule="evenodd" d="M950.22 307.567L955.308 307.301V339.668H949.986L950.22 307.567Z" fill="white"/>
<path fill-rule="evenodd" clip-rule="evenodd" d="M29.8657 370.19L4.86682 370.425V378.381H21.2378V382.809H4.86682V392.993H31.4146V397.864H0V365.54H30.1337L29.8657 370.19Z" fill="white"/>
<path fill-rule="evenodd" clip-rule="evenodd" d="M84.0657 376.499C89.4914 382.527 94.1005 387.525 94.3081 387.606C94.5162 387.687 94.6862 382.755 94.6862 376.647V365.541H99.553V397.864H98.236C97.078 397.864 95.6995 396.522 86.8423 386.78L76.7663 375.697L76.5297 397.907L71.4568 397.642L71.2249 365.541H72.7129C74.096 365.541 74.8956 366.312 84.0657 376.499Z" fill="white"/>
<path fill-rule="evenodd" clip-rule="evenodd" d="M167.585 382.813C167.28 387.126 165.555 389.774 161.723 391.811C160.183 392.63 159.05 392.776 153.201 392.913L146.453 393.073V370.19L153.201 370.429C160.931 370.703 162.426 371.204 165.218 374.467C167.201 376.787 167.851 379.081 167.585 382.813ZM171.634 374.839C169.532 370.385 165.303 367.108 160.258 366.037C158.971 365.766 154.139 365.541 149.524 365.541H141.131L141.365 397.642L148.887 397.766C153.024 397.837 157.656 397.699 159.183 397.461C165.032 396.557 169.355 393.555 171.501 388.901C172.643 386.431 172.78 385.651 172.78 381.702C172.78 377.859 172.629 376.955 171.634 374.839Z" fill="white"/>
<path fill-rule="evenodd" clip-rule="evenodd" d="M217.91 397.642L212.822 397.908V365.541H218.145L217.91 397.642Z" fill="white"/>
<path fill-rule="evenodd" clip-rule="evenodd" d="M117.445 434.728C120.365 433.373 128.285 433.373 131.205 434.728C135.882 436.893 138.691 440.958 138.701 445.572C138.709 451.085 135.705 455.149 130.152 457.133C127.015 458.249 120.329 458.049 117.445 456.747C107.405 452.222 107.405 439.373 117.445 434.728ZM106.078 452.661C107.543 455.654 111.356 459.391 114.259 460.68C115.414 461.197 117.555 461.875 119.015 462.189C124.09 463.288 130.205 462.663 134.44 460.613C137.532 459.112 141.13 455.61 142.559 452.696C143.665 450.442 143.793 449.712 143.784 445.749C143.776 441.839 143.634 441.029 142.563 438.837C141.143 435.915 137.32 432.116 134.586 430.907C123.515 426.006 110.834 429.512 106.149 438.766C104.976 441.082 104.857 441.733 104.857 445.749C104.857 449.685 104.994 450.452 106.078 452.661Z" fill="white"/>
<path fill-rule="evenodd" clip-rule="evenodd" d="M207.937 452.535C201.697 443.616 201.346 443.204 200.751 444.102C200.406 444.621 197.484 448.79 194.257 453.367L188.388 461.689H184.057V429.809L189.13 429.544L189.366 452.353L192.229 448.165C193.804 445.862 196.519 441.936 198.263 439.442L201.434 434.907L206.24 441.866C208.883 445.694 211.544 449.587 212.153 450.517L213.259 452.208L213.702 429.809L218.79 429.543V461.91H214.497L207.937 452.535Z" fill="white"/>
<path fill-rule="evenodd" clip-rule="evenodd" d="M49.9609 448.627H59.5045V457.04H49.8679C41.5453 457.04 40.0852 456.938 39.1385 456.292C38.5368 455.88 37.8994 455.331 37.7223 455.074C37.2048 454.325 37.3597 451.129 37.948 450.358C39.1514 448.796 40.3063 448.627 49.9609 448.627ZM31.307 430.141C31.4264 430.447 33.3554 433.577 35.5985 437.102C37.8421 440.621 39.5098 443.571 39.3063 443.646C34.7799 445.315 32.4216 448.18 32.1561 452.324C31.8597 456.991 33.9039 459.909 38.4082 461.246C40.1472 461.764 43.2533 461.91 52.5051 461.91H64.3718V429.588H59.5045V443.757L45.5672 443.739L36.4171 429.588H33.7536C31.807 429.588 31.1521 429.738 31.307 430.141Z" fill="white"/>
<path fill-rule="evenodd" clip-rule="evenodd" d="M344.362 392.723C341.441 394.078 333.521 394.078 330.601 392.723C325.924 390.558 323.115 386.493 323.106 381.879C323.097 376.366 326.101 372.302 331.654 370.318C334.791 369.202 341.477 369.402 344.362 370.704C354.401 375.229 354.401 388.078 344.362 392.723ZM355.728 374.79C354.264 371.797 350.45 368.06 347.547 366.771C346.392 366.254 344.251 365.576 342.791 365.262C337.716 364.164 331.601 364.788 327.367 366.838C324.274 368.339 320.677 371.841 319.248 374.755C318.141 377.009 318.013 377.739 318.022 381.702C318.031 385.612 318.172 386.422 319.244 388.614C320.664 391.536 324.486 395.335 327.221 396.544C338.291 401.445 350.972 397.939 355.658 388.685C356.83 386.369 356.949 385.718 356.949 381.702C356.949 377.766 356.813 377 355.728 374.79Z" fill="white"/>
<path fill-rule="evenodd" clip-rule="evenodd" d="M253.869 374.916C260.109 383.835 260.46 384.247 261.056 383.349C261.4 382.83 264.322 378.661 267.55 374.084L273.419 365.762H277.749V397.642L272.676 397.907L272.44 375.098L269.577 379.286C268.002 381.589 265.287 385.515 263.543 388.009L260.373 392.544L255.566 385.585C252.923 381.757 250.262 377.864 249.654 376.934L248.547 375.243L248.105 397.642L243.016 397.908V365.541H247.309L253.869 374.916Z" fill="white"/>
<path fill-rule="evenodd" clip-rule="evenodd" d="M411.845 378.824H402.301V370.411H411.938C420.261 370.411 421.721 370.513 422.668 371.16C423.27 371.572 423.907 372.12 424.084 372.377C424.602 373.126 424.447 376.323 423.858 377.093C422.655 378.656 421.5 378.824 411.845 378.824ZM430.499 397.31C430.38 397.005 428.451 393.874 426.208 390.349C423.964 386.83 422.297 383.88 422.5 383.806C427.026 382.136 429.385 379.271 429.65 375.127C429.947 370.46 427.902 367.542 423.398 366.205C421.659 365.687 418.553 365.541 409.301 365.541H397.435V397.864H402.301V383.694L416.239 383.713L425.389 397.864H428.053C429.999 397.864 430.654 397.713 430.499 397.31Z" fill="white"/>
<path fill-rule="evenodd" clip-rule="evenodd" d="M500.749 370.19L475.75 370.425V378.381H492.121V382.809H475.75V392.993H502.297V397.864H470.883V365.54H501.017L500.749 370.19Z" fill="white"/>
<path fill-rule="evenodd" clip-rule="evenodd" d="M554.948 376.499C560.374 382.527 564.983 387.525 565.191 387.606C565.399 387.687 565.569 382.755 565.569 376.647V365.541H570.436V397.864H569.119C567.961 397.864 566.582 396.522 557.725 386.78L547.649 375.697L547.412 397.907L542.339 397.642L542.108 365.541H543.596C544.979 365.541 545.778 366.312 554.948 376.499Z" fill="white"/>
<path fill-rule="evenodd" clip-rule="evenodd" d="M638.468 382.813C638.163 387.126 636.437 389.774 632.606 391.811C631.066 392.63 629.933 392.776 624.084 392.913L617.336 393.073V370.19L624.084 370.429C631.814 370.703 633.309 371.204 636.101 374.467C638.083 376.787 638.734 379.081 638.468 382.813ZM642.517 374.839C640.415 370.385 636.185 367.108 631.141 366.037C629.853 365.766 625.022 365.541 620.407 365.541H612.013L612.248 397.642L619.77 397.766C623.907 397.837 628.539 397.699 630.066 397.461C635.915 396.557 640.238 393.555 642.384 388.901C643.526 386.431 643.662 385.651 643.662 381.702C643.662 377.859 643.512 376.955 642.517 374.839Z" fill="white"/>
<path fill-rule="evenodd" clip-rule="evenodd" d="M688.793 397.642L683.705 397.908V365.541H689.028L688.793 397.642Z" fill="white"/>
<path fill-rule="evenodd" clip-rule="evenodd" d="M588.327 434.728C591.248 433.373 599.168 433.373 602.088 434.728C606.765 436.893 609.574 440.958 609.583 445.572C609.592 451.085 606.588 455.149 601.035 457.133C597.898 458.249 591.212 458.049 588.327 456.747C578.288 452.222 578.288 439.373 588.327 434.728ZM576.961 452.661C578.425 455.654 582.239 459.391 585.142 460.68C586.297 461.197 588.438 461.875 589.898 462.189C594.973 463.288 601.088 462.663 605.322 460.613C608.415 459.112 612.012 455.61 613.442 452.696C614.547 450.442 614.676 449.712 614.667 445.749C614.658 441.839 614.517 441.029 613.446 438.837C612.025 435.915 608.203 432.116 605.469 430.907C594.398 426.006 581.717 429.512 577.031 438.766C575.859 441.082 575.74 441.733 575.74 445.749C575.74 449.685 575.877 450.452 576.961 452.661Z" fill="white"/>
<path fill-rule="evenodd" clip-rule="evenodd" d="M678.82 452.535C672.58 443.616 672.229 443.204 671.634 444.102C671.289 444.621 668.367 448.79 665.139 453.367L659.271 461.689H654.94V429.809L660.013 429.544L660.249 452.353L663.112 448.165C664.687 445.862 667.402 441.936 669.146 439.442L672.316 434.907L677.123 441.866C679.766 445.694 682.427 449.587 683.035 450.517L684.142 452.208L684.584 429.809L689.673 429.543V461.91H685.38L678.82 452.535Z" fill="white"/>
<path fill-rule="evenodd" clip-rule="evenodd" d="M520.844 448.627H530.387V457.04H520.751C512.428 457.04 510.968 456.938 510.021 456.292C509.42 455.88 508.782 455.331 508.605 455.074C508.088 454.325 508.243 451.129 508.831 450.358C510.034 448.796 511.189 448.627 520.844 448.627ZM502.19 430.141C502.309 430.447 504.238 433.577 506.481 437.102C508.725 440.621 510.393 443.571 510.189 443.646C505.663 445.315 503.304 448.18 503.039 452.324C502.743 456.991 504.787 459.909 509.291 461.246C511.03 461.764 514.136 461.91 523.388 461.91H535.255V429.588H530.387V443.757L516.45 443.739L507.3 429.588H504.636C502.69 429.588 502.035 429.738 502.19 430.141Z" fill="white"/>
<path fill-rule="evenodd" clip-rule="evenodd" d="M431.941 457.261L456.94 457.026V449.07H440.569V444.642H456.94V434.458H430.392V429.587H461.806V461.911H431.673L431.941 457.261Z" fill="white"/>
<path fill-rule="evenodd" clip-rule="evenodd" d="M377.741 450.952C372.315 444.924 367.706 439.927 367.498 439.845C367.29 439.764 367.12 444.696 367.12 450.804V461.91H362.253V429.587H363.57C364.728 429.587 366.107 430.929 374.964 440.671L385.04 451.754L385.277 429.544L390.35 429.809L390.582 461.91H389.094C387.71 461.91 386.911 461.139 377.741 450.952Z" fill="white"/>
<path fill-rule="evenodd" clip-rule="evenodd" d="M294.221 444.638C294.526 440.325 296.252 437.677 300.084 435.64C301.623 434.821 302.756 434.675 308.606 434.538L315.353 434.378V457.261L308.606 457.022C300.875 456.748 299.38 456.247 296.588 452.984C294.606 450.664 293.956 448.37 294.221 444.638ZM290.173 452.612C292.274 457.066 296.504 460.343 301.548 461.414C302.836 461.685 307.667 461.91 312.282 461.91H320.676L320.441 429.809L312.919 429.685C308.782 429.614 304.15 429.752 302.623 429.99C296.774 430.894 292.451 433.896 290.305 438.55C289.164 441.02 289.027 441.8 289.027 445.749C289.027 449.592 289.177 450.496 290.173 452.612Z" fill="white"/>
<path fill-rule="evenodd" clip-rule="evenodd" d="M243.896 429.809L248.984 429.543V461.91H243.661L243.896 429.809Z" fill="white"/>
<path fill-rule="evenodd" clip-rule="evenodd" d="M815.244 392.723C812.324 394.078 804.404 394.078 801.484 392.723C796.807 390.558 793.998 386.493 793.989 381.879C793.98 376.366 796.984 372.302 802.537 370.318C805.674 369.202 812.36 369.402 815.244 370.704C825.284 375.229 825.284 388.078 815.244 392.723ZM826.611 374.79C825.146 371.797 821.333 368.06 818.43 366.771C817.275 366.254 815.134 365.576 813.674 365.262C808.599 364.164 802.484 364.788 798.25 366.838C795.157 368.339 791.56 371.841 790.13 374.755C789.025 377.009 788.896 377.739 788.905 381.702C788.914 385.612 789.055 386.422 790.126 388.614C791.547 391.536 795.369 395.335 798.103 396.544C809.174 401.445 821.855 397.939 826.54 388.685C827.713 386.369 827.832 385.718 827.832 381.702C827.832 377.766 827.695 377 826.611 374.79Z" fill="white"/>
<path fill-rule="evenodd" clip-rule="evenodd" d="M724.752 374.916C730.992 383.835 731.343 384.247 731.938 383.349C732.283 382.83 735.205 378.661 738.433 374.084L744.302 365.762H748.632V397.642L743.559 397.907L743.323 375.098L740.46 379.286C738.885 381.589 736.17 385.515 734.426 388.009L731.256 392.544L726.449 385.585C723.806 381.757 721.145 377.864 720.536 376.934L719.43 375.243L718.988 397.642L713.899 397.908V365.541H718.192L724.752 374.916Z" fill="white"/>
<path fill-rule="evenodd" clip-rule="evenodd" d="M882.728 378.824H873.184V370.411H882.821C891.144 370.411 892.604 370.513 893.55 371.16C894.152 371.572 894.79 372.12 894.967 372.377C895.484 373.126 895.329 376.323 894.741 377.093C893.538 378.656 892.383 378.824 882.728 378.824ZM901.382 397.31C901.263 397.005 899.334 393.874 897.091 390.35C894.847 386.83 893.179 383.88 893.383 383.806C897.909 382.136 900.267 379.271 900.533 375.127C900.829 370.46 898.785 367.542 894.281 366.205C892.542 365.687 889.436 365.541 880.184 365.541H868.317V397.864H873.184V383.694L887.122 383.713L896.272 397.864H898.935C900.882 397.864 901.537 397.713 901.382 397.31Z" fill="white"/>
<path fill-rule="evenodd" clip-rule="evenodd" d="M971.631 370.19L946.632 370.425V378.381H963.003V382.809H946.632V392.993H973.18V397.864H941.766V365.54H971.899L971.631 370.19Z" fill="white"/>
<path fill-rule="evenodd" clip-rule="evenodd" d="M991.726 448.627H1001.27V457.04H991.633C983.311 457.04 981.851 456.938 980.904 456.292C980.302 455.88 979.665 455.331 979.488 455.074C978.97 454.325 979.125 451.129 979.714 450.358C980.917 448.796 982.072 448.627 991.726 448.627ZM973.073 430.141C973.192 430.447 975.121 433.577 977.364 437.102C979.608 440.621 981.275 443.571 981.072 443.646C976.546 445.315 974.187 448.18 973.922 452.324C973.625 456.991 975.669 459.909 980.174 461.246C981.913 461.764 985.019 461.91 994.271 461.91H1006.14V429.588H1001.27V443.757L987.333 443.739L978.183 429.588H975.519C973.573 429.588 972.918 429.738 973.073 430.141Z" fill="white"/>
<path fill-rule="evenodd" clip-rule="evenodd" d="M902.823 457.261L927.822 457.026V449.07H911.451V444.642H927.822V434.458H901.275V429.587H932.689V461.911H902.555L902.823 457.261Z" fill="white"/>
<path fill-rule="evenodd" clip-rule="evenodd" d="M848.624 450.952C843.198 444.924 838.589 439.927 838.381 439.845C838.173 439.764 838.003 444.696 838.003 450.804V461.91H833.136V429.587H834.453C835.611 429.587 836.99 430.929 845.847 440.671L855.923 451.754L856.16 429.544L861.232 429.809L861.464 461.91H859.976C858.593 461.91 857.794 461.139 848.624 450.952Z" fill="white"/>
<path fill-rule="evenodd" clip-rule="evenodd" d="M765.104 444.638C765.409 440.325 767.135 437.677 770.966 435.64C772.506 434.821 773.639 434.675 779.488 434.538L786.236 434.378V457.261L779.488 457.022C771.758 456.748 770.263 456.247 767.471 452.984C765.489 450.664 764.838 448.37 765.104 444.638ZM761.055 452.612C763.157 457.066 767.387 460.343 772.431 461.414C773.719 461.685 778.55 461.91 783.165 461.91H791.559L791.324 429.809L783.802 429.685C779.665 429.614 775.033 429.752 773.506 429.99C767.657 430.894 763.334 433.896 761.188 438.55C760.046 441.02 759.909 441.8 759.909 445.749C759.909 449.592 760.06 450.496 761.055 452.612Z" fill="white"/>
<path fill-rule="evenodd" clip-rule="evenodd" d="M714.779 429.809L719.867 429.543V461.91H714.544L714.779 429.809Z" fill="white"/>
<path fill-rule="evenodd" clip-rule="evenodd" d="M108.92 514.965C106 516.32 98.0799 516.32 95.1597 514.965C90.4829 512.8 87.6738 508.735 87.6645 504.121C87.6557 498.609 90.6601 494.544 96.2128 492.56C99.3499 491.444 106.036 491.644 108.92 492.946C118.96 497.471 118.96 510.32 108.92 514.965ZM120.287 497.033C118.822 494.04 115.009 490.302 112.106 489.014C110.951 488.496 108.81 487.818 107.35 487.504C102.275 486.406 96.1601 487.03 91.9255 489.08C88.8327 490.581 85.2354 494.083 83.8063 496.997C82.7 499.251 82.5719 499.981 82.5807 503.944C82.5895 507.854 82.731 508.664 83.8022 510.856C85.2225 513.778 89.045 517.577 91.7793 518.786C102.85 523.688 115.531 520.181 120.216 510.927C121.389 508.611 121.508 507.96 121.508 503.944C121.508 500.008 121.371 499.242 120.287 497.033Z" fill="white"/>
<path fill-rule="evenodd" clip-rule="evenodd" d="M18.4279 497.159C24.668 506.077 25.0187 506.489 25.6142 505.591C25.9587 505.072 28.881 500.903 32.1085 496.326L37.9773 488.004H42.308V519.884L37.2351 520.15L36.9985 497.341L34.1357 501.528C32.5609 503.831 29.8458 507.757 28.1021 510.251L24.9314 514.787L20.1245 507.827C17.4817 503.999 14.8207 500.106 14.2123 499.176L13.106 497.485L12.6634 519.884L7.575 520.15V487.783H11.868L18.4279 497.159Z" fill="white"/>
<path fill-rule="evenodd" clip-rule="evenodd" d="M176.404 501.066H166.86V492.653H176.497C184.82 492.653 186.28 492.755 187.226 493.402C187.828 493.814 188.465 494.363 188.643 494.619C189.16 495.368 189.005 498.565 188.417 499.335C187.214 500.898 186.059 501.066 176.404 501.066ZM195.058 519.552C194.939 519.247 193.01 516.116 190.766 512.592C188.523 509.072 186.855 506.123 187.059 506.048C191.585 504.378 193.943 501.513 194.209 497.369C194.505 492.702 192.461 489.784 187.957 488.447C186.218 487.929 183.112 487.783 173.86 487.783H161.993V520.106H166.86V505.937L180.798 505.955L189.948 520.106H192.611C194.558 520.106 195.213 519.955 195.058 519.552Z" fill="white"/>
<path fill-rule="evenodd" clip-rule="evenodd" d="M265.307 492.432L240.308 492.667V500.623H256.679V505.051H240.308V515.235H266.856V520.106H235.441V487.783H265.575L265.307 492.432Z" fill="white"/>
<path fill-rule="evenodd" clip-rule="evenodd" d="M319.507 498.742C324.933 504.769 329.542 509.767 329.749 509.848C329.958 509.93 330.128 504.998 330.128 498.889V487.783H334.994V520.106H333.677C332.519 520.106 331.141 518.765 322.284 509.022L312.208 497.939L311.971 520.149L306.898 519.884L306.666 487.783H308.154C309.537 487.783 310.337 488.554 319.507 498.742Z" fill="white"/>
<path fill-rule="evenodd" clip-rule="evenodd" d="M403.027 505.056C402.721 509.368 400.996 512.016 397.164 514.053C395.624 514.872 394.492 515.018 388.643 515.156L381.895 515.315V492.432L388.643 492.671C396.372 492.946 397.868 493.446 400.66 496.709C402.642 499.03 403.292 501.323 403.027 505.056ZM407.075 497.081C404.973 492.627 400.744 489.35 395.699 488.279C394.412 488.009 389.581 487.783 384.966 487.783H376.572L376.806 519.884L384.328 520.008C388.465 520.079 393.098 519.942 394.625 519.703C400.474 518.799 404.797 515.797 406.943 511.144C408.084 508.673 408.221 507.894 408.221 503.944C408.221 500.101 408.071 499.198 407.075 497.081Z" fill="white"/>
<path fill-rule="evenodd" clip-rule="evenodd" d="M453.352 519.884L448.264 520.15V487.783H453.586L453.352 519.884Z" fill="white"/>
<path fill-rule="evenodd" clip-rule="evenodd" d="M579.803 514.965C576.883 516.32 568.963 516.32 566.042 514.965C561.366 512.8 558.557 508.735 558.547 504.121C558.538 498.609 561.543 494.544 567.096 492.56C570.233 491.444 576.919 491.644 579.803 492.946C589.843 497.471 589.843 510.32 579.803 514.965ZM591.17 497.033C589.705 494.04 585.891 490.302 582.989 489.014C581.834 488.496 579.693 487.818 578.232 487.504C573.158 486.406 567.043 487.03 562.808 489.08C559.716 490.581 556.118 494.083 554.689 496.997C553.583 499.251 553.455 499.981 553.464 503.944C553.472 507.854 553.614 508.664 554.685 510.856C556.105 513.778 559.928 517.577 562.662 518.786C573.732 523.688 586.414 520.181 591.099 510.927C592.272 508.611 592.391 507.96 592.391 503.944C592.391 500.008 592.254 499.242 591.17 497.033Z" fill="white"/>
<path fill-rule="evenodd" clip-rule="evenodd" d="M489.311 497.159C495.551 506.077 495.902 506.489 496.497 505.591C496.842 505.072 499.764 500.903 502.991 496.326L508.86 488.004H513.191V519.884L508.118 520.15L507.881 497.341L505.019 501.528C503.444 503.831 500.729 507.757 498.985 510.251L495.814 514.787L491.007 507.827C488.365 503.999 485.704 500.106 485.095 499.176L483.989 497.485L483.546 519.884L478.458 520.15V487.783H482.751L489.311 497.159Z" fill="white"/>
<path fill-rule="evenodd" clip-rule="evenodd" d="M647.287 501.066H637.743V492.653H647.38C655.702 492.653 657.162 492.755 658.109 493.402C658.711 493.814 659.348 494.363 659.525 494.619C660.043 495.368 659.888 498.565 659.3 499.335C658.096 500.898 656.941 501.066 647.287 501.066ZM665.941 519.552C665.821 519.247 663.892 516.116 661.649 512.592C659.406 509.072 657.738 506.123 657.941 506.048C662.467 504.378 664.826 501.513 665.092 497.369C665.388 492.702 663.344 489.784 658.84 488.447C657.101 487.929 653.994 487.783 644.743 487.783H632.876V520.106H637.743V505.937L651.681 505.955L660.831 520.106H663.494C665.441 520.106 666.096 519.955 665.941 519.552Z" fill="white"/>
<path fill-rule="evenodd" clip-rule="evenodd" d="M736.19 492.432L711.191 492.667V500.623H727.562V505.051H711.191V515.235H737.739V520.106H706.324V487.783H736.458L736.19 492.432Z" fill="white"/>
<path fill-rule="evenodd" clip-rule="evenodd" d="M790.39 498.742C795.815 504.769 800.424 509.767 800.632 509.848C800.84 509.93 801.01 504.998 801.01 498.889V487.783H805.877V520.106H804.56C803.402 520.106 802.024 518.765 793.166 509.022L783.09 497.939L782.854 520.149L777.781 519.884L777.549 487.783H779.037C780.42 487.783 781.22 488.554 790.39 498.742Z" fill="white"/>
<path fill-rule="evenodd" clip-rule="evenodd" d="M873.91 505.056C873.604 509.368 871.879 512.016 868.047 514.053C866.507 514.872 865.375 515.018 859.525 515.156L852.778 515.315V492.432L859.525 492.671C867.255 492.946 868.75 493.446 871.542 496.709C873.525 499.03 874.175 501.323 873.91 505.056ZM877.958 497.081C875.856 492.627 871.626 489.35 866.582 488.279C865.295 488.009 860.463 487.783 855.849 487.783H847.455L847.689 519.884L855.211 520.008C859.348 520.079 863.981 519.942 865.507 519.703C871.357 518.799 875.68 515.797 877.826 511.144C878.967 508.673 879.104 507.894 879.104 503.944C879.104 500.101 878.954 499.198 877.958 497.081Z" fill="white"/>
<path fill-rule="evenodd" clip-rule="evenodd" d="M924.235 519.884L919.146 520.15V487.783H924.469L924.235 519.884Z" fill="white"/>
<path fill-rule="evenodd" clip-rule="evenodd" d="M960.193 497.159C966.434 506.077 966.784 506.489 967.38 505.591C967.724 505.072 970.646 500.903 973.874 496.326L979.743 488.004H984.073V519.884L979.001 520.15L978.764 497.341L975.901 501.528C974.326 503.831 971.611 507.757 969.868 510.251L966.697 514.787L961.89 507.827C959.247 503.999 956.586 500.106 955.978 499.176L954.872 497.485L954.429 519.884L949.341 520.15V487.783H953.634L960.193 497.159Z" fill="white"/>
</g>
</svg>
